<svg xmlns="http://www.w3.org/2000/svg" width="1600" height="900" viewBox="0 0 1600 900" fill="none">
  <rect width="1600" height="900" fill="#FFF1F2"/>
  <circle cx="1325" cy="160" r="190" fill="#E11D48" fill-opacity="0.12"/>
  <rect x="118" y="520" width="1240" height="110" rx="55" fill="#0F172A"/>
  <path d="M348 496L485 338C533 282 592 252 659 252H1028C1085 252 1138 277 1174 322L1282 450V520H348V496Z" fill="#DC2626"/>
  <circle cx="520" cy="640" r="92" fill="#1F2937"/>
  <circle cx="1125" cy="640" r="92" fill="#1F2937"/>
  <circle cx="520" cy="640" r="44" fill="#CBD5E1"/>
  <circle cx="1125" cy="640" r="44" fill="#CBD5E1"/>
  <rect x="612" y="304" width="308" height="128" rx="24" fill="#FCE7F3"/>
  <rect x="936" y="304" width="176" height="128" rx="24" fill="#FCE7F3"/>
  <text x="120" y="160" fill="#0F172A" font-family="Arial, sans-serif" font-size="68" font-weight="700">Jeep Renegade Sport</text>
  <text x="120" y="228" fill="#475569" font-family="Arial, sans-serif" font-size="28">Arte interna para modo de demonstracao</text>
</svg>
