<svg xmlns="http://www.w3.org/2000/svg" width="1600" height="900" viewBox="0 0 1600 900" fill="none">
  <rect width="1600" height="900" fill="#EEF2FF"/>
  <circle cx="300" cy="150" r="180" fill="#1D4ED8" fill-opacity="0.12"/>
  <rect x="120" y="520" width="1240" height="110" rx="55" fill="#111827"/>
  <path d="M355 500L500 350C540 300 596 272 656 272H1042C1091 272 1139 290 1173 325L1270 450V520H355V500Z" fill="#FFFFFF"/>
  <circle cx="520" cy="640" r="92" fill="#1F2937"/>
  <circle cx="1120" cy="640" r="92" fill="#1F2937"/>
  <circle cx="520" cy="640" r="44" fill="#CBD5E1"/>
  <circle cx="1120" cy="640" r="44" fill="#CBD5E1"/>
  <rect x="618" y="320" width="292" height="118" rx="24" fill="#DBEAFE"/>
  <rect x="924" y="320" width="168" height="118" rx="24" fill="#DBEAFE"/>
  <text x="120" y="160" fill="#0F172A" font-family="Arial, sans-serif" font-size="68" font-weight="700">Chevrolet Onix LT</text>
  <text x="120" y="228" fill="#475569" font-family="Arial, sans-serif" font-size="28">Imagem demonstrativa do acervo interno</text>
</svg>
