<svg xmlns="http://www.w3.org/2000/svg" width="1600" height="900" viewBox="0 0 1600 900" fill="none">
  <rect width="1600" height="900" fill="#E8F7F4"/>
  <circle cx="1320" cy="140" r="170" fill="#14B8A6" fill-opacity="0.16"/>
  <rect x="128" y="522" width="1240" height="110" rx="55" fill="#111827"/>
  <path d="M365 498L515 350C556 299 612 270 671 270H1022C1070 270 1117 288 1151 324L1266 448V522H365V498Z" fill="#64748B"/>
  <circle cx="530" cy="642" r="92" fill="#1F2937"/>
  <circle cx="1125" cy="642" r="92" fill="#1F2937"/>
  <circle cx="530" cy="642" r="44" fill="#CBD5E1"/>
  <circle cx="1125" cy="642" r="44" fill="#CBD5E1"/>
  <rect x="620" y="320" width="290" height="120" rx="24" fill="#E2E8F0"/>
  <rect x="922" y="320" width="166" height="120" rx="24" fill="#E2E8F0"/>
  <text x="120" y="160" fill="#0F172A" font-family="Arial, sans-serif" font-size="68" font-weight="700">Hyundai HB20 Comfort</text>
  <text x="120" y="228" fill="#475569" font-family="Arial, sans-serif" font-size="28">Placeholder para fotos do lote e do anuncio</text>
</svg>
