<svg xmlns="http://www.w3.org/2000/svg" width="1600" height="900" viewBox="0 0 1600 900" fill="none">
  <rect width="1600" height="900" fill="#F5F5F5"/>
  <circle cx="260" cy="180" r="180" fill="#111827" fill-opacity="0.08"/>
  <rect x="118" y="522" width="1240" height="110" rx="55" fill="#111827"/>
  <path d="M352 500L498 346C540 296 596 268 654 268H1038C1088 268 1135 288 1170 324L1275 452V522H352V500Z" fill="#111827"/>
  <circle cx="520" cy="642" r="92" fill="#0F172A"/>
  <circle cx="1118" cy="642" r="92" fill="#0F172A"/>
  <circle cx="520" cy="642" r="44" fill="#CBD5E1"/>
  <circle cx="1118" cy="642" r="44" fill="#CBD5E1"/>
  <rect x="618" y="318" width="292" height="120" rx="24" fill="#CBD5E1" fill-opacity="0.9"/>
  <rect x="926" y="318" width="166" height="120" rx="24" fill="#CBD5E1" fill-opacity="0.9"/>
  <text x="120" y="160" fill="#0F172A" font-family="Arial, sans-serif" font-size="68" font-weight="700">Toyota Corolla GLi</text>
  <text x="120" y="228" fill="#475569" font-family="Arial, sans-serif" font-size="28">Imagem interna de demonstracao</text>
</svg>
